<?xml version="1.0" standalone="no"?><!DOCTYPE svg PUBLIC "-//W3C//DTD SVG 1.1//EN" "http://www.w3.org/Graphics/SVG/1.1/DTD/svg11.dtd"><svg t="1540555262622" class="icon" style="" viewBox="0 0 1024 1024" version="1.1" xmlns="http://www.w3.org/2000/svg" p-id="5396" xmlns:xlink="http://www.w3.org/1999/xlink" width="200" height="200"><defs><style type="text/css"></style></defs><path d="M721.866105 361.094737H302.133895a37.726316 37.726316 0 1 1 0-75.452632h419.73221a37.726316 37.726316 0 1 1 0 75.452632m-178.768842 269.473684H302.133895a37.726316 37.726316 0 1 1 0-75.452632h240.909473a37.726316 37.726316 0 1 1 0 75.452632M857.411368 0H166.642526C119.322947 0 80.842105 38.426947 80.842105 85.854316v838.817684c0 47.427368 38.480842 85.854316 85.800421 85.854316h690.714948c47.319579 0 85.800421-38.426947 85.800421-85.854316V85.854316C943.157895 38.426947 904.677053 0 857.357474 0" fill="#ff4400" p-id="5397"></path></svg>