<?xml version="1.0" standalone="no"?><!DOCTYPE svg PUBLIC "-//W3C//DTD SVG 1.1//EN" "http://www.w3.org/Graphics/SVG/1.1/DTD/svg11.dtd"><svg t="1540552435597" class="icon" style="" viewBox="0 0 1502 1024" version="1.1" xmlns="http://www.w3.org/2000/svg" p-id="1900" xmlns:xlink="http://www.w3.org/1999/xlink" width="293.359375" height="200"><defs><style type="text/css"></style></defs><path d="M1295.821 306.076l-0.875-4.875-93.881-227.016c-17.751-45.253-61.754-74.755-110.383-74.005h-652.67c-49.003-2.75-94.131 26.252-111.883 71.88l-100.132 230.391-0.875 4.625c-6.875 20.876-10.501 42.753-10.501 64.879 0.25 58.504 25.002 114.258 68.255 153.636l0.25 399.027c0.875 55.254 45.878 99.382 101.007 99.382l753.052-0.375c55.254 0 100.382-44.253 101.382-99.632v-399.402c42.503-39.003 67.88-94.256 68.13-153.636-0.25-22.002-3.875-43.878-10.876-64.879zM1170.187 672.726v249.892c-0.375 18.001-15.251 32.627-34.127 32.627l-751.926 0.5c-17.751 0-32.502-14.501-32.752-31.252l-0.25-309.896v-47.753c25.627 9.501 52.754 14.001 80.13 13.501v0.25h0.5c63.254 0 123.383-27.377 164.761-75.13 41.253 47.378 101.007 74.63 163.761 74.63h1.125c62.629-0.25 122.133-27.627 163.136-75.13 41.628 47.753 102.132 75.005 165.511 74.63h0.75c27.002 0.375 53.879-4.25 79.255-13.501l0.125 106.632z" fill="#ff4400" p-id="1901"></path><path d="M603.524 935.869v-319.647h147.635l38.878-23.752v23.752h143.135v39.128h-287.77v280.519h-41.878zM890.543 935.869h-217.14v-144.635h84.756v-119.008h41.878v32.252h133.134v39.503h-133.134v47.253h125.509v109.758l-35.002 34.877zM883.668 897.116v-66.38h-168.512v66.38h168.512z" fill="#ff4400" p-id="1902"></path></svg>