<?xml version="1.0" standalone="no"?><!DOCTYPE svg PUBLIC "-//W3C//DTD SVG 1.1//EN" "http://www.w3.org/Graphics/SVG/1.1/DTD/svg11.dtd"><svg t="1540555179341" class="icon" style="" viewBox="0 0 1024 1024" version="1.1" xmlns="http://www.w3.org/2000/svg" p-id="4362" xmlns:xlink="http://www.w3.org/1999/xlink" width="200" height="200"><defs><style type="text/css"></style></defs><path d="M1012.032 896.896c0 20.48-16.64 37.12-37.12 37.12H45.12a37.12 37.12 0 0 1-37.12-37.12V305.152c0-20.48 16.64-37.12 37.12-37.12h150.912l2.624 323.968s6.656 29.376 24 25.344c18.752-4.288 90.688-66.688 90.688-66.688s71.104 66.816 88 65.344c14.656-1.344 25.344-24 25.344-24l-1.28-324.032h549.504c20.48 0 37.12 16.64 37.12 37.12v591.808zM1012.032 166.016a64 64 0 0 1-64 64H73.984a64 64 0 0 1-64-64v-12.032a64 64 0 0 1 64-64h873.984a64 64 0 0 1 64 64v12.032z" fill="#ff4400" p-id="4363"></path></svg>