<?xml version="1.0" standalone="no"?><!DOCTYPE svg PUBLIC "-//W3C//DTD SVG 1.1//EN" "http://www.w3.org/Graphics/SVG/1.1/DTD/svg11.dtd"><svg t="1540555222461" class="icon" style="" viewBox="0 0 1024 1024" version="1.1" xmlns="http://www.w3.org/2000/svg" p-id="4661" xmlns:xlink="http://www.w3.org/1999/xlink" width="200" height="200"><defs><style type="text/css"></style></defs><path d="M 933.474 623.98 L 426.987 623.98 c -15.5379 0 -28.1348 -12.5498 -28.1348 -27.9956 L 398.852 232.042 c 0 -15.4898 12.5969 -27.9936 28.1348 -27.9936 L 933.474 204.048 c 15.5379 0 28.1358 12.5048 28.1358 27.9936 l 0 363.943 C 961.61 611.431 949.012 623.98 933.474 623.98 L 933.474 623.98 Z M 891.246 260.039 L 469.212 260.039 c -7.79248 0 -14.0909 6.24728 -14.0909 13.9958 c 0 7.70038 6.29845 13.9978 14.0909 13.9978 l 422.034 0 c 7.79248 0 14.093 -6.29743 14.093 -13.9978 C 905.339 266.287 899.038 260.039 891.246 260.039 L 891.246 260.039 Z M 891.246 316.03 L 469.212 316.03 c -7.79248 0 -14.0909 6.2524 -14.0909 13.9978 c 0 7.74541 6.29845 13.9978 14.0909 13.9978 l 422.034 0 c 7.79248 0 14.093 -6.2524 14.093 -13.9978 C 905.339 322.282 899.038 316.03 891.246 316.03 L 891.246 316.03 Z M 891.246 372.022 L 469.212 372.022 c -7.79248 0 -14.0909 6.2524 -14.0909 13.9947 c 0 7.70038 6.29845 13.9978 14.0909 13.9978 l 422.034 0 c 7.79248 0 14.093 -6.29743 14.093 -13.9978 C 905.339 378.274 899.038 372.022 891.246 372.022 L 891.246 372.022 Z M 891.246 428.013 L 469.212 428.013 c -7.79248 0 -14.0909 6.25035 -14.0909 13.9978 c 0 7.69629 6.29845 13.9978 14.0909 13.9978 l 422.034 0 c 7.79248 0 14.093 -6.30152 14.093 -13.9978 C 905.339 434.264 899.038 428.013 891.246 428.013 L 891.246 428.013 Z M 891.246 484.003 L 469.212 484.003 c -7.79248 0 -14.0909 6.25342 -14.0909 14.0009 c 0 7.69629 6.29845 13.9927 14.0909 13.9927 l 422.034 0 c 7.79248 0 14.093 -6.29743 14.093 -13.9927 C 905.339 490.258 899.038 484.003 891.246 484.003 L 891.246 484.003 Z M 891.246 539.996 L 469.212 539.996 c -7.79248 0 -14.0909 6.25035 -14.0909 13.9978 c 0 7.69629 6.29845 13.9958 14.0909 13.9958 l 422.034 0 c 7.79248 0 14.093 -6.3005 14.093 -13.9958 C 905.339 546.247 899.038 539.996 891.246 539.996 L 891.246 539.996 Z M 734.751 708.807 L 398.851 708.807 c 0 0 -28.1379 -20.109 -28.1379 -56.8293 l 337.675 0 C 708.389 651.977 734.751 686.085 734.751 708.807 L 734.751 708.807 Z M 314.444 623.98 l -86.1798 -0.884137 c 0 0 -84.4064 6.11221 -84.4064 81.3754 c 0 0 1.16657 31.4902 -39.8475 31.4902 c 0 0 -41.6199 2.33519 -41.6199 -26.2662 L 62.39 534.719 c 0 0 4.1055 -27.9905 21.6961 -52.4884 l 61.5437 -138.206 c 0 0 14.0459 -55.9922 56.2716 -55.9922 c 15.8172 1.72632 110.769 0 110.769 0 s 58.044 -3.50073 58.044 52.4936 l -1.72529 225.692 C 368.989 566.219 367.214 623.98 314.444 623.98 L 314.444 623.98 Z M 272.263 567.99 l 28.1368 0 c 7.74438 0 14.0439 -6.3005 14.0439 -13.9958 c 0 -7.74643 -6.29947 -13.9978 -14.0439 -13.9978 l -28.1368 0 c -7.79248 0 -14.0899 6.25035 -14.0899 13.9978 C 258.172 561.69 264.47 567.99 272.263 567.99 L 272.263 567.99 Z M 287.195 344.025 l -46.6126 0 c 0 0 -29.8621 4.38589 -39.5672 25.3831 l -83.5212 146.929 l -0.558725 23.1891 l 28.6945 -0.419556 c 0 0 -1.77237 -27.1115 29.024 -27.1115 l 110.768 -0.88823 c 8.81885 2.61762 29.022 -4.37975 29.022 -27.9905 L 314.444 372.905 C 314.444 372.905 317.103 344.025 287.195 344.025 L 287.195 344.025 Z M 257.285 651.37 c 47.1263 0 85.2926 36.8626 85.2926 83.7095 c 0 46.892 -38.1673 84.872 -85.2926 84.872 c -47.0782 0 -84.127 -37.98 -84.127 -84.872 C 173.159 688.233 210.207 651.37 257.285 651.37 L 257.285 651.37 Z M 848.181 651.977 c 46.146 0 83.5212 37.1859 83.5212 83.1017 c 0 45.9117 -37.3752 83.0986 -83.5212 83.0986 c -46.146 0 -83.5202 -37.1869 -83.5202 -83.0986 C 764.66 689.163 802.035 651.977 848.181 651.977 L 848.181 651.977 Z" p-id="4662" fill="#ff4400"></path></svg>