<?xml version="1.0" standalone="no"?><!DOCTYPE svg PUBLIC "-//W3C//DTD SVG 1.1//EN" "http://www.w3.org/Graphics/SVG/1.1/DTD/svg11.dtd"><svg t="1540558330622" class="icon" style="" viewBox="0 0 1024 1024" version="1.1" xmlns="http://www.w3.org/2000/svg" p-id="1399" xmlns:xlink="http://www.w3.org/1999/xlink" width="200" height="200"><defs><style type="text/css"></style></defs><path d="M430.388261 59.427484l163.222455 0c204.875111 0 370.960777 166.084643 370.960777 370.9618L964.571493 593.612763c0 204.876134-166.084643 370.95873-370.960777 370.95873l-163.222455 0c-204.875111 0-370.960777-166.083619-370.960777-370.95873L59.427484 430.390307C59.427484 225.51315 225.51315 59.427484 430.388261 59.427484zM512.227174 529.098423c8.771781 0 16.381086-3.091408 22.618137-9.187243 6.262634-6.119371 9.437953-13.589506 9.437953-22.202675L544.283264 328.023872c0-8.596795-3.165086-16.130376-9.407254-22.38994-6.244214-6.263657-13.863752-9.44-22.648836-9.44-9.084912 0-16.85897 3.176342-23.104207 9.441023-6.242168 6.264681-9.407254 13.798261-9.407254 22.388916l0 169.687704c0 8.611122 3.176342 16.080234 9.437953 22.199605C495.39481 526.007015 503.157611 529.098423 512.227174 529.098423zM714.009853 477.265918c-3.856841-15.359826-9.404184-30.166043-16.487509-44.005236-7.106862-13.875009-16.021905-27.015284-26.498514-39.053458-10.468422-12.028964-22.329565-23.006993-35.314297-32.66905-7.367805-5.236258-15.506159-7.239891-24.093744-5.922896-8.587586 1.320065-15.665795 5.485945-21.039175 12.378935-5.432733 6.961552-7.498788 14.867616-6.139837 23.499204 1.351787 8.575306 5.624091 15.59314 12.752442 20.894889 18.683525 13.326517 33.186843 29.91124 43.10882 49.29266 9.924024 19.391652 14.954597 40.527019 14.954597 62.817698 0 19.114336-3.753487 37.379329-11.157107 54.290487-7.41283 16.950044-17.709337 31.9292-30.600949 44.522006-12.916171 12.612249-28.268834 22.75526-45.63127 30.146601-17.339924 7.381108-36.059264 11.124362-55.637158 11.124362-19.588127 0-38.307468-3.742231-55.636135-11.124362-17.375739-7.395434-32.728402-17.537422-45.63127-30.145577-12.899798-12.600993-23.277146-27.588335-30.844495-44.545542-7.547907-16.917298-11.373025-35.175127-11.369955-54.267974 0-22.577205 5.408173-44.223201 16.075117-64.337307 10.664897-20.114107 25.845645-36.921911 45.098127-49.944506 7.441483-4.956895 11.989055-11.837606 13.514805-20.449751 1.521656-8.580422-0.273223-16.610306-5.376451-23.923876-5.070482-6.931876-12.07706-11.19497-20.830421-12.673647-8.712429-1.470491-16.920368 0.285502-24.286126 5.190209l-4.709255 3.140527 0.184195 0.090051c-12.08627 8.856715-23.060205 18.826787-32.679283 29.696346-10.776438 12.184507-20.145829 25.532513-27.847232 39.676651-7.709589 14.159488-13.653975 29.361725-17.669428 45.185108-4.00829 15.811104-6.040576 32.079626-6.040576 48.356334 0 28.018124 5.554506 54.680367 16.507976 79.245855 10.937097 24.524556 25.938766 46.196135 44.584428 64.408939 18.638499 18.209734 40.814568 32.856315 65.911152 43.536562 25.130354 10.691503 52.396347 16.112979 81.043804 16.112979 28.348652 0 55.462173-5.421476 80.58741-16.112979 25.092491-10.6782 47.343261-25.322735 66.132186-43.526329 18.803251-18.21485 33.80799-39.893592 44.599777-64.435545 10.799974-24.564465 16.274662-51.222615 16.274662-79.233576C719.820186 508.519736 717.865671 492.628814 714.009853 477.265918z" p-id="1400" fill="#ffffff"></path></svg>