<?xml version="1.0" standalone="no"?><!DOCTYPE svg PUBLIC "-//W3C//DTD SVG 1.1//EN" "http://www.w3.org/Graphics/SVG/1.1/DTD/svg11.dtd"><svg t="1540555292729" class="icon" style="" viewBox="0 0 1024 1024" version="1.1" xmlns="http://www.w3.org/2000/svg" p-id="6145" xmlns:xlink="http://www.w3.org/1999/xlink" width="200" height="200"><defs><style type="text/css"></style></defs><path d="M512.034133 0C229.7344 0 0 229.751467 0 512c0 282.282667 229.7344 512 512.034133 512C794.282667 1024 1024 794.282667 1024 512 1024 229.751467 794.282667 0 512.034133 0zM749.397333 604.074667c-11.758933 28.142933-28.9792 53.2992-50.517333 75.127466a238.250667 238.250667 0 0 1-75.093333 50.6368 234.888533 234.888533 0 0 1-92.091734 18.500267 237.073067 237.073067 0 0 1-153.890133-56.661333 17.9712 17.9712 0 0 1-1.9968-25.326934c3.4304-3.925333 8.430933-6.058667 13.4656-6.058666 4.471467 0 8.516267 1.570133 11.707733 4.164266a199.901867 199.901867 0 0 0 130.7136 48.401067c110.574933 0 200.618667-90.026667 200.618667-200.823467 0-110.848-90.026667-200.874667-200.618667-200.874666-96.068267 0-179.438933 69.512533-197.410133 162.9184l32.341333-28.177067c3.208533-2.816 7.3728-4.334933 11.639467-4.334933 5.0688 0 10.001067 2.2016 13.550933 6.0928 6.434133 7.287467 5.512533 18.568533-1.757866 25.1392l-67.805867 59.2384c-0.648533 0.768-1.501867 1.262933-2.474667 1.962666l-0.034133 0.034134c-0.0512 0.0512-0.324267 0.085333-0.392533 0.136533-0.221867 0.068267-0.5632 0.4608-1.1264 0.631467l-0.3584 0.136533-0.068267 0.085333v0.034134c-0.512 0.2048-0.6656 0.2048-1.006933 0.324266l-0.426667 0.256-0.1024 0.068267c-0.2048 0.136533-0.477867 0.136533-1.024 0.170667l-0.017067 0.068266-0.1024 0.068267a4.010667 4.010667 0 0 1-1.3312 0.290133h-0.170666c-0.5632 0-1.006933 0.136533-1.501867 0.187734h-0.136533a3.976533 3.976533 0 0 1-1.604267 0.273066l-0.2048-0.017066h-0.068267l-0.802133-0.0512c-0.1024-0.170667-0.170667-0.2048-0.341333-0.2048l-0.136534-0.0512a5.376 5.376 0 0 1-1.024-0.136534h-1.041066l-0.017067-0.034133-0.1536-0.0512-0.170667-0.017067c-0.238933-0.085333-0.597333-0.187733-0.768-0.324266l-0.3072-0.034134h-0.136533c-0.273067 0-0.494933-0.119467-1.024-0.4096l-0.017067-0.034133c-0.802133-0.119467-1.4336-0.546133-2.167466-1.024l-0.170667-0.1024a3.242667 3.242667 0 0 1-0.9728-0.426667h-0.068267c-0.443733-0.2048-0.6656-0.546133-1.006933-0.699733l-0.085333-0.2048c-0.392533-0.1024-0.546133-0.238933-0.750934-0.631467-0.170667-0.034133-0.238933-0.034133-0.256-0.170666l-0.580266-0.341334v-0.068266c-0.119467-0.341333-0.324267-0.4608-0.392534-0.4608-0.017067-0.0512-0.085333-0.221867-0.392533-0.3584l-0.1024-0.068267c-0.1024-0.1024-0.290133-0.5632-0.494933-0.631467-0.017067-0.2048-0.3584-0.3584-0.529067-0.426666-0.034133-0.341333-0.068267-0.4608-0.136533-0.4608-0.273067-0.324267-0.341333-0.4608-0.699734-0.9728l-0.034133-0.068267c-0.170667-0.273067-0.324267-0.4608-0.5632-1.006933-0.034133 0-0.034133-0.1024-0.034133-0.1024a2.816 2.816 0 0 1-0.631467-1.3312l-36.471467-82.141867a18.824533 18.824533 0 0 1-0.494933-13.755733c1.774933-4.369067 5.034667-7.953067 9.591467-9.864534a16.093867 16.093867 0 0 1 7.048533-1.450666c7.0656 0 13.397333 4.164267 16.366933 10.564266l11.7248 26.5728a227.84 227.84 0 0 1 11.861334-35.7888 241.220267 241.220267 0 0 1 50.5344-75.178666 237.277867 237.277867 0 0 1 75.3664-50.619734 234.222933 234.222933 0 0 1 92.0576-18.4832c31.8976 0 62.702933 6.109867 92.074666 18.4832a238.216533 238.216533 0 0 1 75.093334 50.619734c21.538133 21.845333 38.7584 47.018667 50.466133 75.178666A231.2192 231.2192 0 0 1 768 512.017067c0 31.863467-6.126933 62.8224-18.602667 92.0576z m-146.500266-125.969067c1.928533 0 3.362133 1.655467 3.362133 3.5328v28.5696c0 1.9968-1.4336 3.566933-3.362133 3.566933h-53.640534v23.893334h53.640534c1.928533 0 3.362133 1.501867 3.362133 3.3792v28.740266c0 1.9968-1.4336 3.413333-3.362133 3.413334h-53.640534v53.6064c0 9.9328-8.021333 17.937067-17.629866 17.937066a17.885867 17.885867 0 0 1-17.8176-17.937066v-53.6064h-53.6576a3.2768 3.2768 0 0 1-3.362134-3.413334v-28.740266c0-1.877333 1.4336-3.3792 3.362134-3.3792h53.6576v-23.893334h-53.6576c-1.928533 0-3.362133-1.570133-3.362134-3.566933v-28.5696c0-1.877333 1.4336-3.5328 3.362134-3.5328h28.228266l-29.064533-29.064533a17.937067 17.937067 0 0 1 0-25.258667c3.464533-3.4304 7.918933-5.051733 12.6976-5.051733 4.7616 0 9.216 1.621333 12.731733 5.051733l46.830934 47.0016 46.6944-47.0016c3.5328-3.447467 7.970133-5.085867 12.731733-5.085867 4.795733 0 9.233067 1.6384 12.6976 5.085867 6.9632 6.980267 6.9632 18.2784 0.034133 25.2416l-29.1328 29.0816h28.296534z" fill="#ff4400" p-id="6146"></path></svg>