<?xml version="1.0" standalone="no"?><!DOCTYPE svg PUBLIC "-//W3C//DTD SVG 1.1//EN" "http://www.w3.org/Graphics/SVG/1.1/DTD/svg11.dtd"><svg t="1540431811066" class="icon" style="" viewBox="0 0 1024 1024" version="1.1" xmlns="http://www.w3.org/2000/svg" p-id="12321" xmlns:xlink="http://www.w3.org/1999/xlink" width="200" height="200"><defs><style type="text/css"></style></defs><path d="M447.049143 763.402449a1.966 2.005 0 1 0 82.170776 0 1.966 2.005 0 1 0-82.170776 0Z" p-id="12322" fill="#ff4400"></path><path d="M668.818286 319.174531l79.182367 0c8.526367 0 15.443592-6.95902 15.443592-15.527184 0-8.589061-6.917224-15.527184-15.443592-15.527184l-50.134204 0 22.63249-33.353143c4.806531-7.084408 3.009306-16.760163-4.033306-21.587592-7.042612-4.848327-16.655673-3.030204-21.462204 4.054204l-34.544327 50.865633-15.234612 0-40.395755-51.701551c-5.266286-6.750041-14.983837-7.920327-21.671184-2.612245-6.708245 5.308082-7.857633 15.067429-2.591347 21.817469l25.39102 32.517224-34.293551 0c-8.526367 0-15.443592 6.95902-15.443592 15.527184 0 8.589061 6.917224 15.527184 15.443592 15.527184l65.933061 0c0.041796 0 0.083592 0 0.125388 0l0 46.602449-66.058449 0c-8.526367 0-15.443592 6.95902-15.443592 15.527184 0 8.589061 6.917224 15.527184 15.443592 15.527184l66.058449 0 0 62.338612c0 8.589061 6.917224 15.527184 15.443592 15.527184 8.526367 0 15.443592-6.95902 15.443592-15.527184L668.609306 396.852245l79.370449 0c8.526367 0 15.443592-6.95902 15.443592-15.527184 0-8.589061-6.917224-15.527184-15.443592-15.527184l-79.370449 0 0-46.602449C668.672 319.174531 668.755592 319.174531 668.818286 319.174531z" p-id="12323" fill="#ff4400"></path><path d="M512 10.44898c-277.002449 0-501.55102 224.548571-501.55102 501.55102s224.548571 501.55102 501.55102 501.55102c277.002449 0 501.55102-224.548571 501.55102-501.55102S789.002449 10.44898 512 10.44898zM693.582367 784.363102c0 34.565224-27.731592 62.840163-61.628082 62.840163L344.314776 847.203265c-33.89649 0-61.628082-28.274939-61.628082-62.840163L282.686694 239.72049c0-34.565224 27.731592-62.840163 61.628082-62.840163l165.240163 0c0 0-45.473959 48.713143-55.003429 83.800816l-130.779429 0 0 418.962286 328.745796 0 0-115.461224c0 0-53.310694 0.041796-107.72898-33.290449-0.292571-0.188082-0.585143-0.376163-0.877714-0.564245-6.499265-4.033306-13.019429-8.421878-19.456-13.479184 6.415673 5.01551 12.935837 9.445878 19.456 13.479184 0.292571 0.188082 0.585143 0.376163 0.877714 0.564245 46.832327 28.56751 93.790041 33.185959 108.126041 33.185959 21.39951 0 40.709224-3.866122 40.709224-3.866122L693.624163 784.363102zM452.252735 269.291102c-3.928816 15.15102-8.714449 36.508735-10.072816 61.523592C443.454694 302.99951 448.867265 280.805878 452.252735 269.291102zM658.515592 533.044245c-103.695673 0-187.872653-86.078694-187.872653-192.386612 0-106.307918 84.17698-192.365714 187.872653-192.365714s187.872653 86.078694 187.872653 192.365714C846.409143 446.965551 762.232163 533.044245 658.515592 533.044245z" p-id="12324" fill="#ff4400"></path></svg>