<?xml version="1.0" standalone="no"?><!DOCTYPE svg PUBLIC "-//W3C//DTD SVG 1.1//EN" "http://www.w3.org/Graphics/SVG/1.1/DTD/svg11.dtd"><svg t="1540435500732" class="icon" style="" viewBox="0 0 1024 1024" version="1.1" xmlns="http://www.w3.org/2000/svg" p-id="30595" xmlns:xlink="http://www.w3.org/1999/xlink" width="200" height="200"><defs><style type="text/css"></style></defs><path d="M959.5 962.6l-34.4-635.3c-1.8-34-30.9-61.4-64.9-61.4H163.8c-34.1 0-63.1 27.5-64.9 61.4L64.5 962.6c-1.8 34 24.3 61.4 58.3 61.4h778.3c34.2 0 60.2-27.5 58.4-61.4zM663.8 614.8l-0.5 0.6-212.7 284.8c-4.5 6.2-9.9 5-8.6-3.5l29.2-196.3c1.6-10.4-5.8-18.9-16.3-18.9h-84.7c-10.5 0-13.8-6.7-7.1-14.9l222.4-276.4c5.8-7.4 10.6-4.5 9.2 4l-29.8 196.3c-0.9 4.8 0.5 9.7 3.6 13.3 3.2 3.7 7.8 5.7 12.7 5.6h79.9c1.8 0.3 3.2 1.8 3.3 3.6-0.1 0.6-0.3 1.2-0.6 1.8z" p-id="30596" fill="#d81e06"></path><path d="M515.2 0C369.3 0 250.6 113.8 250.6 253.6c0 28.2 23.9 51.1 53.3 51.1s53.3-22.9 53.3-51.1c0-83.5 70.8-151.4 157.9-151.4S673 170.1 673 253.6c0 28.2 23.9 51.1 53.3 51.1s53.3-22.9 53.3-51.1C779.8 113.8 661.1 0 515.2 0z" p-id="30597" fill="#d81e06"></path></svg>