<?xml version="1.0" standalone="no"?><!DOCTYPE svg PUBLIC "-//W3C//DTD SVG 1.1//EN" "http://www.w3.org/Graphics/SVG/1.1/DTD/svg11.dtd"><svg t="1540432519715" class="icon" style="" viewBox="0 0 1024 1024" version="1.1" xmlns="http://www.w3.org/2000/svg" p-id="14151" xmlns:xlink="http://www.w3.org/1999/xlink" width="200" height="200"><defs><style type="text/css"></style></defs><path d="M-285.861098 862.823134l0 0 0 0 0 0 0 0Z" p-id="14152" fill="#d82e26"></path><path d="M511.999488 63.535035c-247.681032 0-448.464965 200.783932-448.464965 448.464965 0 247.680009 200.783932 448.464965 448.464965 448.464965 247.680009 0 448.464965-200.784956 448.464965-448.464965C960.464453 264.319991 759.679497 63.535035 511.999488 63.535035zM487.030817 765.464759l-190.570313 0 0-63.522756 190.570313 0L487.030817 765.464759zM736.533334 765.464759l-266.871093-244.478084c0 0-41.11235 41.253566-54.885028 55.30356-1.301645 1.302669-1.828648 4.497431-1.254573 6.389524 3.28686 11.010775-0.697895 21.028942-11.601222 27.915793-7.754614 4.930289-18.237363 3.411703-25.558096-3.876284-37.159318-37.22174-74.316589-74.504878-111.413486-111.816668-7.227612-7.227612-8.654101-17.185404-3.938706-25.12626 6.358825-10.69969 16.903995-15.725146 26.984584-12.002358 4.093225 1.488911 6.296403 0.433882 8.993838-2.358721 19.044752-19.260669 38.213323-38.367843 57.319473-57.550741 33.964556-34.087353 67.943438-68.190055 101.923344-102.265128 2.093684-2.108011 3.660366-3.643993 2.202155-7.396457-4.125971-10.671037 0.38681-21.106714 11.197016-27.853371 8.311293-5.196349 18.223037-3.78521 26.0237 4.016477 36.894282 36.942377 73.757864 73.928756 110.60712 110.932532 7.227612 7.272637 9.010211 16.378016 5.086855 24.580838-4.465708 9.336646-14.950504 16.671705-24.007787 13.632485-8.745175-2.915399-12.299117 1.798972-16.965393 6.452969-1.753947 1.736551-51.271734 51.208289-51.271734 51.208289l247.362784 264.049838L736.533334 765.464759z" p-id="14153" fill="#d82e26"></path></svg>