<?xml version="1.0" standalone="no"?><!DOCTYPE svg PUBLIC "-//W3C//DTD SVG 1.1//EN" "http://www.w3.org/Graphics/SVG/1.1/DTD/svg11.dtd"><svg t="1540430601079" class="icon" style="" viewBox="0 0 1024 1024" version="1.1" xmlns="http://www.w3.org/2000/svg" p-id="3410" xmlns:xlink="http://www.w3.org/1999/xlink" width="200" height="200"><defs><style type="text/css"></style></defs><path d="M261.136 327.92h141.728v-33.792h-141.728v33.792z m0-79.808h141.728v-30.576h-141.728v30.576z m0 155.872a5402.08 5402.08 0 0 1 141.728-7.168V373.92h-141.728v30.064zM877.712 0H146.288C65.536 0 0 65.552 0 146.304v731.408C0 958.464 65.536 1024 146.288 1024h731.424C958.464 1024 1024 958.464 1024 877.712V146.304C1024 65.552 958.464 0 877.712 0zM119.088 868.72l-29.76-53.312c204.864-34.96 294.752-137.872 294.752-137.872l60.768 66.72c-71.744 67.12-270.544 124.464-325.76 124.464z m631.728-422.832l55.216 96.384c-52.368 10.624-129.6 19.84-212.256 27.664 23.632 30 54.496 60.416 91.648 88.656 92.112-35.088 142.704-114.256 142.704-114.256l109.568 65.68s-84.032 75.904-175.808 97.856a634.784 634.784 0 0 0 175.808 64.352L841.6 868.656c-133.568-56.032-212.688-124.192-257.904-175.968v184.896h-135.616V582.16c-12.208 0.88-24.288 1.68-36.192 2.56l32.976 36.224C373.104 688 174.304 745.408 119.088 745.408l-29.76-53.312c127.184-21.728 210.064-69.568 254.592-102.768-99.616 6.352-173.264 9.648-173.264 9.648l-15.232-66.688c59.936-0.816 151.792-7.248 247.536-18.064v-48.88c-189.296 18.064-291.104 52.656-291.104 52.656l-38.704-96.032c27.2-3.872 56.688-7.168 87.328-10.08V217.536H104.384V146.448H573.44v35.168c43.6-11.04 129.248-29.76 212.72-29.104 68.592 0.512 115.84 19.456 138.816 59.168 14.56 25.312 17.68 51.872-4.528 86.384-12.064 18.864-32.464 38.976-59.536 60.336 31.152 20.624 62.096 43.744 89.872 69.12l-99.536 80.24a529.056 529.056 0 0 0-76.224-90.688c-25.024 15.36-52.368 31.168-81.936 47.392 21.888-5.84 41.632-12 57.728-18.576z m-104.656-198.416s60.624 22.736 135.376 63.328c20.064-12.192 35.92-24.576 45.344-36.928 10.32-13.616 12.592-26.336 7.472-36.496-8.336-16.32-29.024-22.32-60.496-24.496-1.248-0.16-2.56 0-3.936 0-117.408 0-187.376 52.208-188.784 52.496l-23.472-47.824H505.28v176.272c38.4-0.88 62.176-1.104 62.176-1.104v62.688c-21.52 0.592-42.048 1.472-62.176 2.4v43.152c45.184-6.576 88.88-14.032 128.288-22.368l-51.344-78.704c38.128-15.216 77.536-30.656 113.44-46.304-55.28-36.944-98.592-53.04-98.592-53.04l49.088-53.072z m0 0" fill="#D81E06" p-id="3411"></path></svg>