<?xml version="1.0" standalone="no"?><!DOCTYPE svg PUBLIC "-//W3C//DTD SVG 1.1//EN" "http://www.w3.org/Graphics/SVG/1.1/DTD/svg11.dtd"><svg t="1540437118826" class="icon" style="" viewBox="0 0 1024 1024" version="1.1" xmlns="http://www.w3.org/2000/svg" p-id="31323" xmlns:xlink="http://www.w3.org/1999/xlink" width="200" height="200"><defs><style type="text/css"></style></defs><path d="M403.876955 398.955364c0-38.054711 43.972491-61.246923 74.937736-34.012651 11.842723 10.410094 14.068414 22.297842 14.068414 37.077453 0 20.433378-20.421098 40.926108-40.920992 40.926108-15.477506 0-24.243147-2.01489-35.582403-13.527085C410.260339 423.206698 403.876955 410.909627 403.876955 398.955364L403.876955 398.955364zM65.250608 499.211742c0 46.763047 1.596358 69.769017 16.995069 113.953332 18.795065 53.93847 59.97086 109.225657 106.58962 140.986011 3.740184 2.551102 6.305613 4.713348 10.232039 7.166213 3.728928 2.319835 6.927783 4.527107 10.779507 6.607488 12.390191 6.704702 21.89159 12.550851 35.298947 17.897625 31.399127 12.534478 67.3622 22.349007 102.465696 22.349007 37.375236 0 55.709813-0.394996 92.197842-11.126408 20.444635-6.010901 40.631396-14.018272 57.212026-23.608697l24.919553-14.982226c4.541433-3.006474 7.836479-5.578042 11.864212-8.591679l46.924729-44.131103c2.304486-2.796696 3.246951-2.335185 4.227278-6.002714-12.125155-2.820232-23.855314-5.876847-35.007305-8.985652-11.641131-3.237741-22.065552-7.315616-32.513508-11.469216-21.595854-8.591679-39.895639-18.516726-58.904575-30.105668-13.515828-8.241708-26.391067-18.061354-38.606273-27.891234l-39.85573-37.897122c-9.549493-9.925047-18.228153-22.251793-6.152117-35.355229 7.509021-8.143471 22.293749-7.725962 29.67588 0.575098 2.00261 2.251274 2.196015 3.199878 4.616134 5.614881 2.561335 2.557242 2.990101 2.946099 5.305843 5.950526 8.79941 11.387351 35.018561 32.633235 45.459355 40.4779 11.070126 8.315386 40.138162 27.040866 53.490262 32.446993 5.231141 2.117221 9.422603 4.205788 14.851243 6.630001 18.804275 8.381901 45.046962 16.271592 65.564251 20.373003 5.145184 1.028423 12.222369 2.803859 18.677385 2.803859 5.771447-10.901281 10.469446-20.231787 16.024975-32.050973 53.994752-114.924449 16.075117-271.01139-84.124979-348.969926-30.482245-23.714098-55.921637-38.994106-93.670379-51.596122-51.801806-17.285688-108.618836-19.232017-162.128541-5.854335-9.653871 2.408863-18.237363 4.690836-26.861788 7.92039-8.214079 3.080152-17.386996 6.405897-25.39232 10.410094-16.800641 8.404414-29.203112 15.115256-44.73997 25.853831-31.084972 21.484314-66.950831 59.404971-85.168752 92.843548C84.448856 400.089188 65.250608 447.457008 65.250608 499.211742z" p-id="31324" fill="#ff4400"></path><path d="M809.002856 235.268328c0 11.192923 6.346545 14.549368 12.037151 20.701484 28.250414 30.54569 36.846186 44.319391 56.181557 78.861092 22.170952 39.60502 38.178531 96.958262 38.178531 155.177222 0 53.200666-12.248975 96.579639-28.05087 134.609791l-13.213953 26.682709c-5.984295 11.797697-15.876596 26.755364-23.914666 37.464263l-18.288528 22.632463c-6.551206 8.344039-6.5553 8.420787-6.5553 19.024286 0 12.596899 21.324678 26.130124 36.09508 10.521634 14.490016-15.301498 35.941584-46.324048 46.065152-64.431451 5.246491-9.386788 11.022031-19.634176 15.325034-29.686113 18.351973-42.857087 33.464159-93.63354 33.464159-143.522788 0-43.081191-0.409322-70.142523-12.633738-112.179942-14.380522-49.463552-32.286334-87.563288-63.364143-128.965234l-15.832594-19.978007c-5.237281-5.928013-18.974144-21.432125-24.739451-24.362874C822.123688 208.847585 809.002856 224.671992 809.002856 235.268328z" p-id="31325" fill="#ff4400"></path><path d="M688.28547 333.481164c0 11.342326 1.781576 11.655458 10.084683 22.646789 50.922786 67.429739 63.585177 165.80528 31.711236 245.24761-5.27105 13.139252-10.510378 24.042579-17.295921 35.898605-3.170203 5.541203-6.682189 10.79895-10.369162 16.226566-5.059226 7.449669-9.017374 9.925047-9.017374 20.657482 0 10.514471 8.847505 19.433608 21.485337 19.433608 14.127765 0 24.116257-19.620873 31.908734-32.544207 2.199085-3.653203 4.099365-6.667863 5.944386-10.425444 1.946328-3.952009 3.922333-6.465249 5.813403-10.553357 19.141966-41.334407 31.014364-86.152149 31.014364-132.671649 0-22.378683-3.982708-47.964408-8.433066-69.314669-7.587815-36.399001-28.502148-78.532611-50.16861-107.384729-5.618974-7.479345-9.768481-15.854083-22.367427-16.024975C698.762079 314.546929 688.28547 322.466296 688.28547 333.481164z" p-id="31326" fill="#ff4400"></path></svg>