<?xml version="1.0" standalone="no"?><!DOCTYPE svg PUBLIC "-//W3C//DTD SVG 1.1//EN" "http://www.w3.org/Graphics/SVG/1.1/DTD/svg11.dtd"><svg t="1540432452474" class="icon" style="" viewBox="0 0 1194 1024" version="1.1" xmlns="http://www.w3.org/2000/svg" p-id="12819" xmlns:xlink="http://www.w3.org/1999/xlink" width="233.203125" height="200"><defs><style type="text/css"></style></defs><path d="M608.711111 3.792593C403.911111 0 261.688889 45.511111 153.6 151.703704 54.992593 244.622222 0 381.155556 0 519.585185c0 147.911111 45.511111 263.585185 134.637037 354.607408 89.125926 91.022222 216.177778 142.222222 356.503704 142.222222s250.311111-51.2 339.437037-142.222222c77.748148-79.644444 127.051852-199.111111 134.637037-303.407408 140.325926-64.474074 187.733333-231.348148 197.214815-276.859259l11.377777-53.096296-77.748148 1.896296c43.614815-54.992593 64.474074-146.014815 73.955556-199.111111l9.481481-43.614815-570.785185 3.792593z" fill="#FFC300" p-id="12820"></path><path d="M489.244444 874.192593c-100.503704 0-191.525926-36.02963-254.103703-100.503704-62.577778-64.474074-94.814815-151.703704-94.814815-256 1.896296-183.940741 130.844444-371.674074 441.837037-367.881482h400.118518l-9.481481 43.614815c-9.481481 51.2-28.444444 92.918519-45.511111 119.466667h53.096296l-7.585185 36.02963c0 5.688889-28.444444 125.155556-134.637037 187.733333-3.792593 94.814815-39.822222 178.251852-98.607407 238.933333-64.474074 64.474074-149.807407 98.607407-250.311112 98.607408" fill="#3D3D3D" p-id="12821"></path><path d="M576.474074 201.007407c-259.792593-3.792593-383.051852 155.496296-383.051852 312.888889-1.896296 197.214815 134.637037 303.407407 295.822222 303.407408 180.148148 0 295.822222-130.844444 293.925926-305.303704 102.4-47.407407 121.362963-161.185185 121.362963-161.185185h-66.37037c22.755556-26.548148 56.888889-75.851852 70.162963-149.807408-1.896296 0-250.311111 1.896296-331.851852 0z" fill="#FFFFFF" p-id="12822"></path><path d="M303.407407 422.874074c0-17.066667 13.274074-30.340741 28.444445-30.340741 17.066667 0 28.444444 13.274074 28.444444 30.340741 0 17.066667-13.274074 30.340741-28.444444 30.340741-17.066667 0-28.444444-13.274074-28.444445-30.340741M650.42963 453.214815c-17.066667 0-28.444444-13.274074-28.444445-30.340741 0-17.066667 13.274074-30.340741 28.444445-30.340741 17.066667 0 28.444444 13.274074 28.444444 30.340741 0 17.066667-13.274074 30.340741-28.444444 30.340741" fill="#3D3D3D" p-id="12823"></path><path d="M458.903704 676.977778c-60.681481 0-109.985185-49.303704-109.985185-109.985185 0-60.681481 49.303704-109.985185 109.985185-109.985186h64.474074c60.681481 0 109.985185 49.303704 109.985185 109.985186 0 60.681481-49.303704 109.985185-109.985185 109.985185h-64.474074z" fill="#FF6D6D" p-id="12824"></path><path d="M426.666667 566.992593c0-13.274074 11.377778-24.651852 24.651852-24.651852 13.274074 0 24.651852 11.377778 24.651851 24.651852 0 13.274074-11.377778 24.651852-24.651851 24.651851-13.274074 0-24.651852-11.377778-24.651852-24.651851M506.311111 566.992593c0-13.274074 11.377778-24.651852 24.651852-24.651852s24.651852 11.377778 24.651852 24.651852c0 13.274074-11.377778 24.651852-24.651852 24.651851s-24.651852-11.377778-24.651852-24.651851" fill="#3D3D3D" p-id="12825"></path></svg>