<?xml version="1.0" standalone="no"?><!DOCTYPE svg PUBLIC "-//W3C//DTD SVG 1.1//EN" "http://www.w3.org/Graphics/SVG/1.1/DTD/svg11.dtd"><svg t="1540388400886" class="icon" style="" viewBox="0 0 1024 1024" version="1.1" xmlns="http://www.w3.org/2000/svg" p-id="3119" xmlns:xlink="http://www.w3.org/1999/xlink" width="200" height="200"><defs><style type="text/css"></style></defs><path d="M511.674077 152.781662c-211.632002 0-383.203612 136.181589-383.203612 310.212204 0 114.312512 74.058716 220.195028 184.879708 279.383058l43.271526 113.678062c11.759835 20.101827 33.703613 16.746406 54.0715 5.128811l116.329449-59.3272c8.216125-4.556783 15.496949-8.538467 21.939685-12.019755 194.133466-16.824177 345.914334-163.192779 345.914334-326.842976C894.877689 288.964274 723.306078 152.781662 511.674077 152.781662zM538.338367 759.104911l-130.495076 67.491137c-20.367887 11.58178-19.391652 12.647041-29.082362-7.697309l-35.570123-98.787934C235.568668 666.656359 159.851173 566.544267 159.851173 462.995913c0-152.290475 163.697269-278.83252 351.824951-278.83252 188.126658 0 351.825974 126.542044 351.825974 278.83252C863.499028 608.006588 715.001949 746.278791 538.338367 759.104911z" p-id="3120" fill="#707070"></path><path d="M506.557546 464.282209m-35.815717 0a35 35 0 1 0 71.631434 0 35 35 0 1 0-71.631434 0Z" p-id="3121" fill="#707070"></path><path d="M670.302911 464.282209m-35.815717 0a35 35 0 1 0 71.631434 0 35 35 0 1 0-71.631434 0Z" p-id="3122" fill="#707070"></path><path d="M353.054453 464.282209m-35.815717 0a35 35 0 1 0 71.631434 0 35 35 0 1 0-71.631434 0Z" p-id="3123" fill="#707070"></path></svg>