<?xml version="1.0" standalone="no"?><!DOCTYPE svg PUBLIC "-//W3C//DTD SVG 1.1//EN" "http://www.w3.org/Graphics/SVG/1.1/DTD/svg11.dtd"><svg t="1540426743598" class="icon" style="" viewBox="0 0 1024 1024" version="1.1" xmlns="http://www.w3.org/2000/svg" p-id="2053" xmlns:xlink="http://www.w3.org/1999/xlink" width="200" height="200"><defs><style type="text/css"></style></defs><path d="M357.44 766.4q18.24 0 34.56 6.72t28.8 18.72 19.2 28.32 6.72 34.56-6.72 34.56-19.2 28.32-28.8 19.2-34.56 7.2q-19.2 0-35.04-7.2t-28.32-19.2-19.2-28.32-6.72-34.56 6.72-34.56 19.2-28.32 28.32-18.72 35.04-6.72zM756.8 768.32q18.24 0 35.04 6.72t28.8 18.72 19.2 28.32 7.2 34.56-7.2 34.56-19.2 28.32-28.8 19.2-35.04 7.2-34.56-7.2-28.32-19.2-19.2-28.32-7.2-34.56 7.2-34.56 19.2-28.32 28.32-18.72 34.56-6.72zM918.08 223.04q26.88 0 41.76 7.2t21.12 17.76 5.76 22.56-3.36 20.64-12 35.52-20.64 59.04-22.56 63.84-16.8 49.92q-12.48 38.4-31.68 53.28t-47.04 14.88l-32.64 0-62.4 0-81.6 0-89.28 0-238.08 0 14.4 86.4 483.84 0q46.08 0 46.08 39.36 0 19.2-9.12 33.12t-36 13.92l-46.08 0-89.28 0-110.4 0-112.32 0-92.16 0-52.8 0q-19.2 0-32.16-8.64t-21.6-22.56-13.92-30.24-8.16-30.72q-0.96-5.76-5.28-27.84t-10.56-55.2-13.92-73.92-15.36-82.08q-18.24-96.96-41.28-216l-72 0q-14.4 0-24-7.2t-15.84-17.28-8.64-21.6-2.4-21.12q0-19.2 12.96-31.68t35.04-12.48l21.12 0 19.2 0 24 0 32.64 0q19.2 0 30.72 5.76t18.24 14.4 9.6 18.24 4.8 16.32q1.92 7.68 3.84 21.6t3.84 28.32q2.88 17.28 5.76 36.48l656.64 0z" fill="#707070" p-id="2054"></path></svg>