<?xml version="1.0" standalone="no"?><!DOCTYPE svg PUBLIC "-//W3C//DTD SVG 1.1//EN" "http://www.w3.org/Graphics/SVG/1.1/DTD/svg11.dtd"><svg t="1540387754446" class="icon" style="" viewBox="0 0 1024 1024" version="1.1" xmlns="http://www.w3.org/2000/svg" p-id="2424" xmlns:xlink="http://www.w3.org/1999/xlink" width="200" height="200"><defs><style type="text/css"></style></defs><path d="M562.80517578 80.6975a72.135 72.135 0 0 0-96.93017578 0L73.925 452.86982422a36.1575 36.1575 0 0 0 48.42 53.7075l6.2325-5.9175V889.1a72.315 72.315 0 0 0 72.315 72.405h210.44267578v-217.71035156a50.9175 50.9175 0 0 1 50.94-50.985h99.02285156a50.9175 50.9175 0 0 1 50.94 50.985v217.71035156h215.4375a72.315 72.315 0 0 0 72.3375-72.405V505.40732422c16.065 14.535 38.8575 13.4325 52.2225-1.4625a36.1575 36.1575 0 0 0-2.61-51.075L562.80517578 80.72Z" fill="#707070" p-id="2425"></path></svg>