<?xml version="1.0" standalone="no"?><!DOCTYPE svg PUBLIC "-//W3C//DTD SVG 1.1//EN" "http://www.w3.org/Graphics/SVG/1.1/DTD/svg11.dtd"><svg t="1540383941469" class="icon" style="" viewBox="0 0 1024 1024" version="1.1" xmlns="http://www.w3.org/2000/svg" p-id="1456" xmlns:xlink="http://www.w3.org/1999/xlink" width="200" height="200"><defs><style type="text/css"></style></defs><path d="M896.33192276 852.6350498L730.83513008 687.13825625c49.99080586-60.08646182 80.06191787-137.33328779 80.06191787-221.6070501 0-191.48557237-155.2293545-346.71492685-346.71492686-346.71492685s-346.71492685 155.2293545-346.71492685 346.71492685 155.2293545 346.71492685 346.71492685 346.71492685c85.19204004 0 163.2069457-30.72676729 223.56862032-81.70060693l165.33490253 165.33580255c5.97195088 5.97195088 13.7966458 8.95612763 21.62313984 8.95612763 7.82469492 0 15.65208808-2.98597588 21.62313985-8.95612763C908.27312715 883.9392251 908.27312715 864.57805244 896.33192276 852.6350498zM464.18212021 751.08759893c-38.57664463 0-75.96699434-7.54138653-111.13315136-22.41550196-33.99605068-14.37945029-64.54114102-34.97728535-90.78624668-61.22239101-26.24510567-26.24510567-46.84294073-56.78929687-61.22239102-90.78624669-14.87411543-35.16525791-22.41550195-72.55560762-22.41550195-111.13315136s7.54138653-75.96699434 22.41550195-111.13315137c14.37945029-33.99605068 34.97728535-64.54114102 61.22239102-90.78624667 26.24510567-26.24510567 56.78929687-46.84294073 90.78624668-61.22239102 35.16525791-14.87411543 72.55560762-22.41550195 111.13315136-22.41550195 38.57664463 0 75.96699434 7.54138653 111.13315137 22.41550195 33.99605068 14.37945029 64.54114102 34.97728535 90.78624668 61.22239102 26.24420654 26.24510567 46.84294073 56.78929687 61.22239102 90.78624667 14.87411543 35.16525791 22.41550195 72.55560762 22.41550195 111.13315137s-7.54138653 75.96699434-22.41550195 111.13315136c-14.37945029 33.99605068-34.97728535 64.54114102-61.22239102 90.78624669-26.24510567 26.24510567-56.79019599 46.84294073-90.78624668 61.22239101C540.14911455 743.54621152 502.75876572 751.08759893 464.18212021 751.08759893z" p-id="1457" fill="#8a8a8a"></path></svg>