<?xml version="1.0" standalone="no"?><!DOCTYPE svg PUBLIC "-//W3C//DTD SVG 1.1//EN" "http://www.w3.org/Graphics/SVG/1.1/DTD/svg11.dtd"><svg t="1540428559753" class="icon" style="" viewBox="0 0 1026 1024" version="1.1" xmlns="http://www.w3.org/2000/svg" p-id="1932" xmlns:xlink="http://www.w3.org/1999/xlink" width="200.390625" height="200"><defs><style type="text/css"></style></defs><path d="M884.075842 0.010664H138.638906A137.99648 137.99648 0 0 0 0.002566 138.860291v743.090782a137.99648 137.99648 0 0 0 138.63634 138.209767h746.503369a137.99648 137.99648 0 0 0 138.63634-138.209767V138.860291a137.99648 137.99648 0 0 0-139.702773-138.849627z" fill="#FF002B" p-id="1933"></path><path d="M927.373037 1014.188813a142.902074 142.902074 0 0 1-40.311182 5.972027 155.059414 155.059414 0 0 0 40.311182-5.972027z" fill="#FFFFFF" p-id="1934"></path><path d="M0.002566 138.860291z m95.339144 874.475375a157.618854 157.618854 0 0 0 42.657336 5.972027 157.618854 157.618854 0 0 1-42.657336-5.972027z" fill="#111111" p-id="1935"></path><path d="M935.264644 969.185324a112.188792 112.188792 0 0 0-106.643338-112.188792 7.03846 7.03846 0 0 0-5.972027-2.132867 6.825174 6.825174 0 0 0-5.972027 2.132867h13.010487c17.062934 7.891607 30.073421 55.027963 30.073421 112.188792a355.54889 355.54889 0 0 1-4.052447 50.975516h30.286709a124.772706 124.772706 0 0 0 40.097895-5.972027 103.017465 103.017465 0 0 0 8.95804-45.003489z" fill="#FFFFFF" p-id="1936"></path><path d="M206.890642 856.996532a9.384614 9.384614 0 0 0-11.944053 0z" fill="#111111" p-id="1937"></path><path d="M193.880155 856.996532a112.188792 112.188792 0 0 0-106.643338 112.188792 106.643338 106.643338 0 0 0 11.090907 45.003489 127.972006 127.972006 0 0 0 40.097895 5.972027h30.286708a391.807625 391.807625 0 0 1-3.83916-50.975516c-1.066433-57.160829 11.944054-104.297185 29.006988-112.188792z m621.94395 0a112.188792 112.188792 0 0 0-106.643339 112.188792 97.045438 97.045438 0 0 0 13.010488 50.975516h68.251736a389.248185 389.248185 0 0 1-4.052446-50.975516c0-57.160829 12.157341-104.297185 29.220274-112.188792zM533.219258 946.150363h-42.657335c-13.223774 0-17.062934 5.972027-11.090908 14.930067l13.010488 17.062934c4.052447 5.972027 11.090907 14.930067 13.010487 18.982515s2.132867 1.91958 6.185314 1.91958a8.744754 8.744754 0 0 0 5.972027-1.91958c4.052447-4.052447 8.104894-13.010487 13.010487-18.982515l11.090907-17.062934c8.104894-8.95804 4.052447-14.930067-8.95804-14.930067zM206.890642 856.996532c17.062934 7.891607 32.206288 55.027963 32.206289 112.188792A355.54889 355.54889 0 0 1 234.61791 1020.16084h68.465024a106.643338 106.643338 0 0 0 13.010487-50.975516 117.307672 117.307672 0 0 0-109.202779-112.188792z m720.482395 157.192281A154.419554 154.419554 0 0 0 981.121279 984.115391a203.262203 203.262203 0 0 1-53.108382 30.073422z" fill="#FFFFFF" p-id="1938"></path><path d="M47.138921 984.115391A139.91606 139.91606 0 0 1 0.002566 881.951073a133.304173 133.304173 0 0 0 47.136355 102.164318z m48.202789 30.073422a121.146832 121.146832 0 0 1-51.188802-30.073422 211.367097 211.367097 0 0 0 51.188802 30.073422z" fill="#111111" p-id="1939"></path><path d="M977.495406 682.52803c-39.031462-22.821674-81.688797 19.195801-87.234251 28.153842-53.321669 61.213276-112.615365 135.223753-219.045417 135.223753h-319.930015c-106.643338 0-163.804168-76.143344-219.045417-136.0769-7.67832-8.104894-46.923069-51.188802-87.020965-27.300695-36.258735 21.328668-42.657335 88.087398-45.216775 132.23774v70.171317a133.304173 133.304173 0 0 0 47.136355 101.951031 162.097874 162.097874 0 0 0 51.40209 30.073422 103.870612 103.870612 0 0 1-11.090908-45.003489 112.402079 112.402079 0 0 1 106.643339-112.188792 7.67832 7.67832 0 0 1 5.972027-1.91958 7.891607 7.891607 0 0 1 6.185313 1.91958 112.615365 112.615365 0 0 1 106.643339 112.188792 98.325158 98.325158 0 0 1-13.010487 51.188802h421.454473a106.643338 106.643338 0 0 1-13.010487-51.188802 112.402079 112.402079 0 0 1 106.643338-112.188792 7.891607 7.891607 0 0 1 6.185314-1.91958 7.465034 7.465034 0 0 1 5.972027 1.91958 112.402079 112.402079 0 0 1 106.643338 112.188792 106.643338 106.643338 0 0 1-11.090907 45.003489 151.860114 151.860114 0 0 0 53.321669-30.073422 133.304173 133.304173 0 0 0 45.216776-100.031451v-71.024464c0-46.069922-7.03846-112.188792-42.657336-133.090886zM543.457019 961.08043l-10.877621 15.143354a79.129357 79.129357 0 0 0-13.223774 18.982515 10.23776 10.23776 0 0 1-7.891607 4.052446 9.171327 9.171327 0 0 1-6.185314-2.132866c-3.83916-4.052447-7.891607-13.010487-13.010487-18.982515l-13.010487-17.062934c-5.972027-7.891607 0-14.930067 11.090907-14.930067h42.657335c13.010487 0 17.062934 5.972027 10.877621 14.930067z" fill="#111111" p-id="1940"></path><path d="M828.834592 856.996532h-13.010487c-17.062934 7.891607-30.073421 55.027963-30.073422 112.188792A391.807625 391.807625 0 0 0 789.16327 1020.16084h66.332157a355.54889 355.54889 0 0 0 4.052447-50.975516c0-57.160829-14.076921-104.297185-31.139855-112.188792z m-621.94395 0h-13.010487c-17.062934 7.891607-32.206288 55.027963-32.206288 112.188792a389.248185 389.248185 0 0 0 4.052447 50.975516h66.332156a355.54889 355.54889 0 0 0 4.052447-50.975516c0-57.160829-12.157341-104.297185-29.220275-112.188792z" fill="#111111" p-id="1941"></path><path d="M341.261249 353.213401h146.741234v-38.178315h-151.433541v-80.409077h136.71676V193.888254H161.673867v38.178315H298.603914v81.048937H146.7438v37.965028h146.527947c-14.930067 57.160829-61.213276 106.643338-146.527947 155.272701l18.982514 34.125869c53.321669-30.073421 119.653826-74.223764 153.779694-142.262214a216.059404 216.059404 0 0 0 34.125868 51.188803 447.902021 447.902021 0 0 0 119.653826 91.073411l18.982514-34.125869c-89.367118-46.923069-136.71676-95.979005-151.646827-153.139834z m339.552389-66.11887h38.178316v-31.139854h83.39509v31.993001h38.178315v-31.993001h38.178316v-39.031462h-38.818176V193.888254h-38.178315v25.167827h-83.39509V193.888254h-38.178316v25.167827h-36.258735v37.965029h36.258735z m-78.062923-73.79719a93.632851 93.632851 0 0 0-74.223764-19.195801h-4.052447v38.178315h5.972027a96.405578 96.405578 0 0 1 47.349643 7.891607 23.674821 23.674821 0 0 1 5.972026 18.982515v13.010487l-59.293696 36.045448 18.982515 34.125869 40.311181-22.395101v42.657335l-59.293696 36.045448 19.195801 34.125869 40.097895-23.034961v31.993001a50.335656 50.335656 0 0 1-11.090907 30.073422 202.622343 202.622343 0 0 1-49.269222 40.097895l19.195801 34.125868a191.958009 191.958009 0 0 0 59.293696-49.269222 97.898585 97.898585 0 0 0 18.982514-55.027963v-179.587382a76.783204 76.783204 0 0 0-18.129367-49.055935z m40.311182 100.031452v174.255215a56.520969 56.520969 0 0 0 57.160829 57.160829h119.653826a56.520969 56.520969 0 0 0 57.160829-57.160829v-174.468502z m98.325158 191.958009h-40.097896a18.555941 18.555941 0 0 1-19.1958-18.982514v-38.391602h59.293696z m0-96.192291H682.519932v-57.80069h59.293696z m98.538444 79.129357a18.342654 18.342654 0 0 1-18.982514 18.982514H780.631803v-59.293696h59.293696z m0-79.129357H780.631803v-57.80069h59.293696z" fill="#FFFFFF" p-id="1942"></path></svg>