<?xml version="1.0" standalone="no"?><!DOCTYPE svg PUBLIC "-//W3C//DTD SVG 1.1//EN" "http://www.w3.org/Graphics/SVG/1.1/DTD/svg11.dtd"><svg t="1540458460611" class="icon" style="" viewBox="0 0 1024 1024" version="1.1" xmlns="http://www.w3.org/2000/svg" p-id="1590" xmlns:xlink="http://www.w3.org/1999/xlink" width="200" height="200"><defs><style type="text/css"></style></defs><path d="M512.78336 30.20288c-266.65472 0-482.816 216.1664-482.816 482.816 0 266.65984 216.1664 482.816 482.816 482.816 266.65984 0 482.816-216.16128 482.816-482.816 0-266.6496-216.16128-482.816-482.816-482.816z m-243.59424 250.9312c33.93024 0 61.44512 24.59136 61.44512 54.90688 0 30.34112-27.51488 54.90688-61.44512 54.90688-33.92 0-61.43488-24.56064-61.43488-54.90688 0.00512-30.31552 27.51488-54.90688 61.43488-54.90688z m51.33824 330.00448c-16.26624 50.13504-12.1856 31.49824-76.58496 170.9568l-93.35296-58.00448s104.01792-94.35136 125.47072-137.46688c22.59456-45.45536-24.9856-69.7856-24.9856-69.7856l-71.51104-44.34432 38.59456-59.3664c54.03648 39.9104 57.97376 43.27424 94.34112 79.61088 28.17024 28.15488 24.64768 67.19488 8.02816 118.4z m507.09504 64.98816c-18.14528 170.1376-240.18944 106.91584-240.18944 106.91584l12.09344-48.65024 51.33824 11.01312c95.19104 6.02112 85.8368-76.78976 85.8368-76.78976V427.72992c0.82944-91.3152-86.26176-100.9152-242.4576-45.17888l36.352 9.81504c-3.14368 10.71104-14.98112 27.4432-30.01856 45.65504h209.02912v42.14784h-117.64224v52.6848h117.15072v42.15808h-117.15072v88.36608c17.48992-5.8112 33.8944-13.7216 48.1536-24.21248l-10.37824-38.56896 55.32672-17.11104 45.97248 112.44032-68.06016 28.12928-12.07296-44.83072c-30.34112 23.28576-93.57312 56.84224-203.94496 53.8624-117.84192 3.02592-87.61856-132.48512-87.61856-132.48512l3.03616-1.50528H445.1328c-0.52224 17.36704-7.70048 45.81376 2.1248 61.24544 8.06912 12.66688 28.70784 14.85312 41.97888 15.52896 1.50016 0.1024 3.02592 0.10752 4.53632 0.16384v-101.02272H373.62176v-42.15296H493.7728v-52.6848h-30.81216c-27.01312 28.59008-51.71712 52.20352-51.71712 52.20352l-36.26496-31.60576c25.71776-26.99264 51.51744-69.77536 67.39456-98.3552a1771.5456 1771.5456 0 0 0-39.89504 16.84992 601.6768 601.6768 0 0 1-46.09536 51.39456c0.70144 1.01376-59.19744-33.42848-59.19744-33.42848 61.9264-52.68992 96.6656-165.60128 96.6656-165.60128l86.10304 24.06912s-7.13216 16.66048-21.88288 42.22464c344.94464-97.3568 365.0048 59.67872 365.0048 59.67872s22.68672 108.39552 4.54656 278.52288z" fill="#FF4200" p-id="1591"></path></svg>